<mxfile host="65bd71144e">
    <diagram id="WIZ6bi6OFVp7bwTD068q" name="Seite-1">
        <mxGraphModel dx="1287" dy="562" grid="1" gridSize="10" guides="1" tooltips="1" connect="1" arrows="1" fold="1" page="1" pageScale="1" pageWidth="1654" pageHeight="1169" math="0" shadow="0">
            <root>
                <mxCell id="0"/>
                <mxCell id="1" parent="0"/>
                <mxCell id="-a0xCpIvUqbypiU-xq34-2" value="BuchungssatzInXml&#10;" style="swimlane;fontStyle=1;align=center;verticalAlign=top;childLayout=stackLayout;horizontal=1;startSize=26;horizontalStack=0;resizeParent=1;resizeParentMax=0;resizeLast=0;collapsible=1;marginBottom=0;" parent="1" vertex="1">
                    <mxGeometry x="230" y="113" width="280" height="200" as="geometry"/>
                </mxCell>
                <mxCell id="-a0xCpIvUqbypiU-xq34-3" value="- kontonummer : ulong&#10;&#10;&#10;&#10;&#10;" style="text;strokeColor=none;fillColor=none;align=left;verticalAlign=top;spacingLeft=4;spacingRight=4;overflow=hidden;rotatable=0;points=[[0,0.5],[1,0.5]];portConstraint=eastwest;" parent="-a0xCpIvUqbypiU-xq34-2" vertex="1">
                    <mxGeometry y="26" width="280" height="24" as="geometry"/>
                </mxCell>
                <mxCell id="-a0xCpIvUqbypiU-xq34-6" value="- betrag: float&#10;&#10;&#10;&#10;&#10;&#10;" style="text;strokeColor=none;fillColor=none;align=left;verticalAlign=top;spacingLeft=4;spacingRight=4;overflow=hidden;rotatable=0;points=[[0,0.5],[1,0.5]];portConstraint=eastwest;" parent="-a0xCpIvUqbypiU-xq34-2" vertex="1">
                    <mxGeometry y="50" width="280" height="30" as="geometry"/>
                </mxCell>
                <mxCell id="3" value="" style="line;strokeWidth=1;fillColor=none;align=left;verticalAlign=middle;spacingTop=-1;spacingLeft=3;spacingRight=3;rotatable=0;labelPosition=right;points=[];portConstraint=eastwest;" vertex="1" parent="-a0xCpIvUqbypiU-xq34-2">
                    <mxGeometry y="80" width="280" height="8" as="geometry"/>
                </mxCell>
                <mxCell id="5" value="+ getKontonummer(): ulong" style="text;strokeColor=none;fillColor=none;align=left;verticalAlign=top;spacingLeft=4;spacingRight=4;overflow=hidden;rotatable=0;points=[[0,0.5],[1,0.5]];portConstraint=eastwest;" vertex="1" parent="-a0xCpIvUqbypiU-xq34-2">
                    <mxGeometry y="88" width="280" height="26" as="geometry"/>
                </mxCell>
                <mxCell id="4" value="+ getBetrag(): float" style="text;strokeColor=none;fillColor=none;align=left;verticalAlign=top;spacingLeft=4;spacingRight=4;overflow=hidden;rotatable=0;points=[[0,0.5],[1,0.5]];portConstraint=eastwest;" vertex="1" parent="-a0xCpIvUqbypiU-xq34-2">
                    <mxGeometry y="114" width="280" height="26" as="geometry"/>
                </mxCell>
                <mxCell id="6" value="+ setKonotnummer(kontonummer: ulong) : ulong" style="text;strokeColor=none;fillColor=none;align=left;verticalAlign=top;spacingLeft=4;spacingRight=4;overflow=hidden;rotatable=0;points=[[0,0.5],[1,0.5]];portConstraint=eastwest;" vertex="1" parent="-a0xCpIvUqbypiU-xq34-2">
                    <mxGeometry y="140" width="280" height="30" as="geometry"/>
                </mxCell>
                <mxCell id="7" value="+ setBetrag(betrag: float) : float" style="text;strokeColor=none;fillColor=none;align=left;verticalAlign=top;spacingLeft=4;spacingRight=4;overflow=hidden;rotatable=0;points=[[0,0.5],[1,0.5]];portConstraint=eastwest;" vertex="1" parent="-a0xCpIvUqbypiU-xq34-2">
                    <mxGeometry y="170" width="280" height="30" as="geometry"/>
                </mxCell>
                <mxCell id="-a0xCpIvUqbypiU-xq34-7" value="DispositionsProgramm&#10;" style="swimlane;fontStyle=1;align=center;verticalAlign=top;childLayout=stackLayout;horizontal=1;startSize=26;horizontalStack=0;resizeParent=1;resizeParentMax=0;resizeLast=0;collapsible=1;marginBottom=0;" parent="1" vertex="1">
                    <mxGeometry x="940" y="313" width="280" height="52" as="geometry"/>
                </mxCell>
                <mxCell id="-a0xCpIvUqbypiU-xq34-11" value="+ disponiere(ulong: kontnr, float: betrag): int&#10;" style="text;strokeColor=none;fillColor=none;align=left;verticalAlign=top;spacingLeft=4;spacingRight=4;overflow=hidden;rotatable=0;points=[[0,0.5],[1,0.5]];portConstraint=eastwest;" parent="-a0xCpIvUqbypiU-xq34-7" vertex="1">
                    <mxGeometry y="26" width="280" height="26" as="geometry"/>
                </mxCell>
                <mxCell id="-a0xCpIvUqbypiU-xq34-16" value="&lt;&lt;interface&gt;&#10;IDisposition&#10;&#10;" style="swimlane;fontStyle=1;align=center;verticalAlign=top;childLayout=stackLayout;horizontal=1;startSize=40;horizontalStack=0;resizeParent=1;resizeParentMax=0;resizeLast=0;collapsible=1;marginBottom=0;" parent="1" vertex="1">
                    <mxGeometry x="570" y="156" width="280" height="70" as="geometry"/>
                </mxCell>
                <mxCell id="-a0xCpIvUqbypiU-xq34-31" value="" style="endArrow=open;endFill=1;endSize=12;html=1;" parent="-a0xCpIvUqbypiU-xq34-16" edge="1">
                    <mxGeometry width="160" relative="1" as="geometry">
                        <mxPoint y="40" as="sourcePoint"/>
                        <mxPoint x="-60" y="39" as="targetPoint"/>
                    </mxGeometry>
                </mxCell>
                <mxCell id="-a0xCpIvUqbypiU-xq34-19" value="+ disponiere(b: BuchungssatzInXml): bool" style="text;strokeColor=none;fillColor=none;align=left;verticalAlign=top;spacingLeft=4;spacingRight=4;overflow=hidden;rotatable=0;points=[[0,0.5],[1,0.5]];portConstraint=eastwest;" parent="-a0xCpIvUqbypiU-xq34-16" vertex="1">
                    <mxGeometry y="40" width="280" height="30" as="geometry"/>
                </mxCell>
                <mxCell id="-a0xCpIvUqbypiU-xq34-25" value="" style="endArrow=block;dashed=1;endFill=0;endSize=12;html=1;entryX=0.518;entryY=1.067;entryDx=0;entryDy=0;entryPerimeter=0;exitX=0.5;exitY=0;exitDx=0;exitDy=0;" parent="1" target="-a0xCpIvUqbypiU-xq34-19" edge="1">
                    <mxGeometry width="160" relative="1" as="geometry">
                        <mxPoint x="715" y="273" as="sourcePoint"/>
                        <mxPoint x="790" y="413" as="targetPoint"/>
                    </mxGeometry>
                </mxCell>
                <mxCell id="-a0xCpIvUqbypiU-xq34-26" value="Classname" style="swimlane;fontStyle=1;align=center;verticalAlign=top;childLayout=stackLayout;horizontal=1;startSize=26;horizontalStack=0;resizeParent=1;resizeParentMax=0;resizeLast=0;collapsible=1;marginBottom=0;" parent="1" vertex="1">
                    <mxGeometry x="570" y="285" width="290" height="100" as="geometry"/>
                </mxCell>
                <mxCell id="-a0xCpIvUqbypiU-xq34-27" value="- DispositionsProgramm: dispositionsProgramm" style="text;strokeColor=none;fillColor=none;align=left;verticalAlign=top;spacingLeft=4;spacingRight=4;overflow=hidden;rotatable=0;points=[[0,0.5],[1,0.5]];portConstraint=eastwest;" parent="-a0xCpIvUqbypiU-xq34-26" vertex="1">
                    <mxGeometry y="26" width="290" height="26" as="geometry"/>
                </mxCell>
                <mxCell id="-a0xCpIvUqbypiU-xq34-28" value="" style="line;strokeWidth=1;fillColor=none;align=left;verticalAlign=middle;spacingTop=-1;spacingLeft=3;spacingRight=3;rotatable=0;labelPosition=right;points=[];portConstraint=eastwest;" parent="-a0xCpIvUqbypiU-xq34-26" vertex="1">
                    <mxGeometry y="52" width="290" height="8" as="geometry"/>
                </mxCell>
                <mxCell id="-a0xCpIvUqbypiU-xq34-29" value="+ disponiere(b: BuchungssatzInXml): bool" style="text;strokeColor=none;fillColor=none;align=left;verticalAlign=top;spacingLeft=4;spacingRight=4;overflow=hidden;rotatable=0;points=[[0,0.5],[1,0.5]];portConstraint=eastwest;" parent="-a0xCpIvUqbypiU-xq34-26" vertex="1">
                    <mxGeometry y="60" width="290" height="40" as="geometry"/>
                </mxCell>
                <mxCell id="-a0xCpIvUqbypiU-xq34-30" value="" style="endArrow=open;endFill=1;endSize=12;html=1;" parent="1" edge="1">
                    <mxGeometry width="160" relative="1" as="geometry">
                        <mxPoint x="860" y="343" as="sourcePoint"/>
                        <mxPoint x="940" y="343" as="targetPoint"/>
                    </mxGeometry>
                </mxCell>
                <mxCell id="2" value="ulong kontonummer = b.getKontoNummer();&lt;br&gt;float betrag = b.getBetrag();&lt;br&gt;return dispositionsProgramm.disponiere(kontonummer,&amp;nbsp; betrag) == 1;" style="shape=note2;boundedLbl=1;whiteSpace=wrap;html=1;size=17;verticalAlign=top;align=center;" vertex="1" parent="1">
                    <mxGeometry x="570" y="420" width="380" height="100" as="geometry"/>
                </mxCell>
                <mxCell id="9" value="" style="endArrow=none;dashed=1;html=1;dashPattern=1 3;strokeWidth=2;entryX=0.366;entryY=1.092;entryDx=0;entryDy=0;entryPerimeter=0;exitX=0.281;exitY=-0.022;exitDx=0;exitDy=0;exitPerimeter=0;" edge="1" parent="1" source="2" target="-a0xCpIvUqbypiU-xq34-29">
                    <mxGeometry width="50" height="50" relative="1" as="geometry">
                        <mxPoint x="340" y="480" as="sourcePoint"/>
                        <mxPoint x="390" y="430" as="targetPoint"/>
                    </mxGeometry>
                </mxCell>
            </root>
        </mxGraphModel>
    </diagram>
</mxfile>